<svg xmlns="http://www.w3.org/2000/svg" viewBox="0 0 200 201.34" role="img" aria-label="Alan Arvizu">
  <rect width="200" height="201.34" rx="38" fill="#123B46"/>
  <g transform="translate(30,28) scale(0.70)">
    <path fill="#F4F1EA" d="M188.99,148.65L123.84,20.09c-5.09-10.04-15.24-16.41-26.5-16.62-11.29-.2-21.64,5.78-27.1,15.63l-13.59,24.53c-7.87,14.2-3.21,32.01,10.59,40.52l25.72,15.94,12.88-20.79-25.74-15.95c-2.68-1.65-3.58-5.1-2.06-7.85l13.59-24.53c1.55-2.79,4.19-3.02,5.25-3.03,1.06.02,3.69.37,5.13,3.22l65.15,128.56c1.24,2.45.59,5.49-1.54,7.22-1.96,1.59-4.7,1.75-6.83.41l-99.3-62.57c-7.14-4.5-15.92-5.83-24.06-3.62-8.15,2.19-15.07,7.75-18.99,15.22l-9.54,18.23c-7.1,13.57-2.95,30.35,9.75,39.1l35.72,24.18h43.63l-65.54-44.38c-2.44-1.69-3.25-4.94-1.87-7.56l9.54-18.23c1.04-1.99,2.75-2.7,3.68-2.95.93-.25,2.77-.49,4.66.7l99.3,62.57c11,6.93,25.18,6.09,35.28-2.1,11.03-8.94,14.37-24.62,7.95-37.28"/>
  </g>
</svg>
